<mxfile host="app.diagrams.net" agent="Mozilla/5.0 (Windows NT 10.0; Win64; x64) AppleWebKit/537.36 (KHTML, like Gecko) Chrome/131.0.0.0 Safari/537.36 Edg/131.0.0.0" version="25.0.3">
  <diagram name="Page-1" id="TRiBnwnt5sAuNNagm9dI">
    <mxGraphModel dx="855" dy="381" grid="1" gridSize="10" guides="1" tooltips="1" connect="1" arrows="1" fold="1" page="1" pageScale="1" pageWidth="850" pageHeight="1100" math="0" shadow="0">
      <root>
        <mxCell id="0" />
        <mxCell id="1" parent="0" />
        <mxCell id="DdnkV21UblRkIuYv7x0r-9" style="edgeStyle=orthogonalEdgeStyle;rounded=0;orthogonalLoop=1;jettySize=auto;html=1;entryX=0.5;entryY=0;entryDx=0;entryDy=0;" edge="1" parent="1" source="DdnkV21UblRkIuYv7x0r-1" target="DdnkV21UblRkIuYv7x0r-2">
          <mxGeometry relative="1" as="geometry" />
        </mxCell>
        <mxCell id="DdnkV21UblRkIuYv7x0r-1" value="Start" style="ellipse;whiteSpace=wrap;html=1;aspect=fixed;" vertex="1" parent="1">
          <mxGeometry x="320" y="40" width="80" height="80" as="geometry" />
        </mxCell>
        <mxCell id="DdnkV21UblRkIuYv7x0r-7" style="edgeStyle=orthogonalEdgeStyle;rounded=0;orthogonalLoop=1;jettySize=auto;html=1;entryX=0.5;entryY=0;entryDx=0;entryDy=0;" edge="1" parent="1" source="DdnkV21UblRkIuYv7x0r-2" target="DdnkV21UblRkIuYv7x0r-6">
          <mxGeometry relative="1" as="geometry" />
        </mxCell>
        <mxCell id="DdnkV21UblRkIuYv7x0r-2" value="Initialize connection to system" style="rounded=0;whiteSpace=wrap;html=1;" vertex="1" parent="1">
          <mxGeometry x="300" y="150" width="120" height="60" as="geometry" />
        </mxCell>
        <mxCell id="DdnkV21UblRkIuYv7x0r-20" style="edgeStyle=orthogonalEdgeStyle;rounded=0;orthogonalLoop=1;jettySize=auto;html=1;entryX=0.5;entryY=0;entryDx=0;entryDy=0;" edge="1" parent="1" source="DdnkV21UblRkIuYv7x0r-3">
          <mxGeometry relative="1" as="geometry">
            <mxPoint x="360" y="490.0000000000001" as="targetPoint" />
          </mxGeometry>
        </mxCell>
        <mxCell id="DdnkV21UblRkIuYv7x0r-27" value="&lt;span style=&quot;color: rgba(0, 0, 0, 0); font-family: monospace; font-size: 0px; text-align: start; background-color: rgb(251, 251, 251);&quot;&gt;%3CmxGraphModel%3E%3Croot%3E%3CmxCell%20id%3D%220%22%2F%3E%3CmxCell%20id%3D%221%22%20parent%3D%220%22%2F%3E%3CmxCell%20id%3D%222%22%20value%3D%22Write%20to%20Jeson%20file%22%20style%3D%22rounded%3D0%3BwhiteSpace%3Dwrap%3Bhtml%3D1%3B%22%20vertex%3D%221%22%20parent%3D%221%22%3E%3CmxGeometry%20x%3D%22425%22%20y%3D%22660%22%20width%3D%22120%22%20height%3D%2260%22%20as%3D%22geometry%22%2F%3E%3C%2FmxCell%3E%3C%2Froot%3E%3C%2FmxGraphModel%3E&lt;/span&gt;" style="edgeLabel;html=1;align=center;verticalAlign=middle;resizable=0;points=[];" vertex="1" connectable="0" parent="DdnkV21UblRkIuYv7x0r-20">
          <mxGeometry x="-0.1167" relative="1" as="geometry">
            <mxPoint as="offset" />
          </mxGeometry>
        </mxCell>
        <mxCell id="DdnkV21UblRkIuYv7x0r-28" value="User selects reading of meters" style="edgeLabel;html=1;align=center;verticalAlign=middle;resizable=0;points=[];" vertex="1" connectable="0" parent="DdnkV21UblRkIuYv7x0r-20">
          <mxGeometry x="-0.2402" y="-2" relative="1" as="geometry">
            <mxPoint x="2" as="offset" />
          </mxGeometry>
        </mxCell>
        <mxCell id="DdnkV21UblRkIuYv7x0r-3" value="Menu" style="rounded=0;whiteSpace=wrap;html=1;" vertex="1" parent="1">
          <mxGeometry x="300" y="390" width="120" height="60" as="geometry" />
        </mxCell>
        <mxCell id="DdnkV21UblRkIuYv7x0r-15" style="edgeStyle=orthogonalEdgeStyle;rounded=0;orthogonalLoop=1;jettySize=auto;html=1;entryX=0.5;entryY=1;entryDx=0;entryDy=0;" edge="1" parent="1" source="DdnkV21UblRkIuYv7x0r-6" target="DdnkV21UblRkIuYv7x0r-12">
          <mxGeometry relative="1" as="geometry" />
        </mxCell>
        <mxCell id="DdnkV21UblRkIuYv7x0r-16" value="No" style="edgeLabel;html=1;align=center;verticalAlign=middle;resizable=0;points=[];" vertex="1" connectable="0" parent="DdnkV21UblRkIuYv7x0r-15">
          <mxGeometry x="-0.4722" y="2" relative="1" as="geometry">
            <mxPoint as="offset" />
          </mxGeometry>
        </mxCell>
        <mxCell id="DdnkV21UblRkIuYv7x0r-17" style="edgeStyle=orthogonalEdgeStyle;rounded=0;orthogonalLoop=1;jettySize=auto;html=1;" edge="1" parent="1" source="DdnkV21UblRkIuYv7x0r-6" target="DdnkV21UblRkIuYv7x0r-3">
          <mxGeometry relative="1" as="geometry" />
        </mxCell>
        <mxCell id="DdnkV21UblRkIuYv7x0r-18" value="Yes" style="edgeLabel;html=1;align=center;verticalAlign=middle;resizable=0;points=[];" vertex="1" connectable="0" parent="DdnkV21UblRkIuYv7x0r-17">
          <mxGeometry x="0.075" relative="1" as="geometry">
            <mxPoint y="-12" as="offset" />
          </mxGeometry>
        </mxCell>
        <mxCell id="DdnkV21UblRkIuYv7x0r-6" value="Is there a concentration&amp;nbsp;" style="rhombus;whiteSpace=wrap;html=1;" vertex="1" parent="1">
          <mxGeometry x="305" y="240" width="110" height="110" as="geometry" />
        </mxCell>
        <mxCell id="DdnkV21UblRkIuYv7x0r-13" style="edgeStyle=orthogonalEdgeStyle;rounded=0;orthogonalLoop=1;jettySize=auto;html=1;" edge="1" parent="1" source="DdnkV21UblRkIuYv7x0r-12" target="DdnkV21UblRkIuYv7x0r-2">
          <mxGeometry relative="1" as="geometry">
            <Array as="points">
              <mxPoint x="500" y="180" />
            </Array>
          </mxGeometry>
        </mxCell>
        <mxCell id="DdnkV21UblRkIuYv7x0r-14" value="User presses any key" style="edgeLabel;html=1;align=center;verticalAlign=middle;resizable=0;points=[];" vertex="1" connectable="0" parent="DdnkV21UblRkIuYv7x0r-13">
          <mxGeometry x="0.1333" y="1" relative="1" as="geometry">
            <mxPoint x="37" y="-21" as="offset" />
          </mxGeometry>
        </mxCell>
        <mxCell id="DdnkV21UblRkIuYv7x0r-12" value="Ask user to check the connection&amp;nbsp;" style="rounded=0;whiteSpace=wrap;html=1;" vertex="1" parent="1">
          <mxGeometry x="440" y="200" width="120" height="60" as="geometry" />
        </mxCell>
        <mxCell id="DdnkV21UblRkIuYv7x0r-32" style="edgeStyle=orthogonalEdgeStyle;rounded=0;orthogonalLoop=1;jettySize=auto;html=1;entryX=0.5;entryY=0;entryDx=0;entryDy=0;" edge="1" parent="1" source="DdnkV21UblRkIuYv7x0r-22" target="DdnkV21UblRkIuYv7x0r-29">
          <mxGeometry relative="1" as="geometry">
            <Array as="points">
              <mxPoint x="250" y="625" />
            </Array>
          </mxGeometry>
        </mxCell>
        <mxCell id="DdnkV21UblRkIuYv7x0r-48" value="Yes" style="edgeLabel;html=1;align=center;verticalAlign=middle;resizable=0;points=[];" vertex="1" connectable="0" parent="DdnkV21UblRkIuYv7x0r-32">
          <mxGeometry x="-0.451" y="2" relative="1" as="geometry">
            <mxPoint y="-2" as="offset" />
          </mxGeometry>
        </mxCell>
        <mxCell id="DdnkV21UblRkIuYv7x0r-33" style="edgeStyle=orthogonalEdgeStyle;rounded=0;orthogonalLoop=1;jettySize=auto;html=1;entryX=0.5;entryY=0;entryDx=0;entryDy=0;" edge="1" parent="1" source="DdnkV21UblRkIuYv7x0r-22" target="DdnkV21UblRkIuYv7x0r-24">
          <mxGeometry relative="1" as="geometry" />
        </mxCell>
        <mxCell id="DdnkV21UblRkIuYv7x0r-47" value="No" style="edgeLabel;html=1;align=center;verticalAlign=middle;resizable=0;points=[];" vertex="1" connectable="0" parent="DdnkV21UblRkIuYv7x0r-33">
          <mxGeometry x="-0.7037" y="2" relative="1" as="geometry">
            <mxPoint as="offset" />
          </mxGeometry>
        </mxCell>
        <mxCell id="DdnkV21UblRkIuYv7x0r-22" value="Is there internet connection" style="rhombus;whiteSpace=wrap;html=1;" vertex="1" parent="1">
          <mxGeometry x="300" y="570" width="110" height="110" as="geometry" />
        </mxCell>
        <mxCell id="DdnkV21UblRkIuYv7x0r-50" style="edgeStyle=orthogonalEdgeStyle;rounded=0;orthogonalLoop=1;jettySize=auto;html=1;entryX=0.5;entryY=0;entryDx=0;entryDy=0;" edge="1" parent="1" source="DdnkV21UblRkIuYv7x0r-23" target="DdnkV21UblRkIuYv7x0r-49">
          <mxGeometry relative="1" as="geometry" />
        </mxCell>
        <mxCell id="DdnkV21UblRkIuYv7x0r-23" value="Write to excel file" style="rounded=0;whiteSpace=wrap;html=1;" vertex="1" parent="1">
          <mxGeometry x="300" y="860" width="120" height="60" as="geometry" />
        </mxCell>
        <mxCell id="DdnkV21UblRkIuYv7x0r-46" style="edgeStyle=orthogonalEdgeStyle;rounded=0;orthogonalLoop=1;jettySize=auto;html=1;entryX=1;entryY=0.5;entryDx=0;entryDy=0;" edge="1" parent="1" source="DdnkV21UblRkIuYv7x0r-24" target="DdnkV21UblRkIuYv7x0r-23">
          <mxGeometry relative="1" as="geometry">
            <Array as="points">
              <mxPoint x="510" y="890" />
            </Array>
          </mxGeometry>
        </mxCell>
        <mxCell id="DdnkV21UblRkIuYv7x0r-24" value="Write to Json file" style="rounded=0;whiteSpace=wrap;html=1;" vertex="1" parent="1">
          <mxGeometry x="450" y="660" width="120" height="60" as="geometry" />
        </mxCell>
        <mxCell id="DdnkV21UblRkIuYv7x0r-52" style="edgeStyle=orthogonalEdgeStyle;rounded=0;orthogonalLoop=1;jettySize=auto;html=1;entryX=0.5;entryY=0;entryDx=0;entryDy=0;" edge="1" parent="1" source="DdnkV21UblRkIuYv7x0r-25" target="DdnkV21UblRkIuYv7x0r-22">
          <mxGeometry relative="1" as="geometry" />
        </mxCell>
        <mxCell id="DdnkV21UblRkIuYv7x0r-25" value="Read all electric meters as per settings" style="rounded=0;whiteSpace=wrap;html=1;" vertex="1" parent="1">
          <mxGeometry x="295" y="490" width="120" height="60" as="geometry" />
        </mxCell>
        <mxCell id="DdnkV21UblRkIuYv7x0r-38" style="edgeStyle=orthogonalEdgeStyle;rounded=0;orthogonalLoop=1;jettySize=auto;html=1;entryX=0.5;entryY=0;entryDx=0;entryDy=0;" edge="1" parent="1" source="DdnkV21UblRkIuYv7x0r-29" target="DdnkV21UblRkIuYv7x0r-30">
          <mxGeometry relative="1" as="geometry">
            <Array as="points">
              <mxPoint x="340" y="710" />
            </Array>
          </mxGeometry>
        </mxCell>
        <mxCell id="DdnkV21UblRkIuYv7x0r-41" value="Yes" style="edgeLabel;html=1;align=center;verticalAlign=middle;resizable=0;points=[];" vertex="1" connectable="0" parent="DdnkV21UblRkIuYv7x0r-38">
          <mxGeometry x="-0.6471" y="-3" relative="1" as="geometry">
            <mxPoint y="-3" as="offset" />
          </mxGeometry>
        </mxCell>
        <mxCell id="DdnkV21UblRkIuYv7x0r-39" style="edgeStyle=orthogonalEdgeStyle;rounded=0;orthogonalLoop=1;jettySize=auto;html=1;entryX=0;entryY=0.5;entryDx=0;entryDy=0;" edge="1" parent="1" source="DdnkV21UblRkIuYv7x0r-29" target="DdnkV21UblRkIuYv7x0r-31">
          <mxGeometry relative="1" as="geometry">
            <Array as="points">
              <mxPoint x="150" y="710" />
              <mxPoint x="150" y="820" />
            </Array>
          </mxGeometry>
        </mxCell>
        <mxCell id="DdnkV21UblRkIuYv7x0r-40" value="No" style="edgeLabel;html=1;align=center;verticalAlign=middle;resizable=0;points=[];" vertex="1" connectable="0" parent="DdnkV21UblRkIuYv7x0r-39">
          <mxGeometry x="-0.7333" relative="1" as="geometry">
            <mxPoint as="offset" />
          </mxGeometry>
        </mxCell>
        <mxCell id="DdnkV21UblRkIuYv7x0r-29" value="Is the backup&amp;nbsp;&lt;div&gt;Json file full&lt;/div&gt;" style="rhombus;whiteSpace=wrap;html=1;" vertex="1" parent="1">
          <mxGeometry x="195" y="660" width="110" height="100" as="geometry" />
        </mxCell>
        <mxCell id="DdnkV21UblRkIuYv7x0r-44" style="edgeStyle=orthogonalEdgeStyle;rounded=0;orthogonalLoop=1;jettySize=auto;html=1;entryX=0.5;entryY=0;entryDx=0;entryDy=0;" edge="1" parent="1" source="DdnkV21UblRkIuYv7x0r-30" target="DdnkV21UblRkIuYv7x0r-31">
          <mxGeometry relative="1" as="geometry" />
        </mxCell>
        <mxCell id="DdnkV21UblRkIuYv7x0r-30" value="Send all back up data to server" style="rounded=0;whiteSpace=wrap;html=1;" vertex="1" parent="1">
          <mxGeometry x="295" y="760" width="90" height="40" as="geometry" />
        </mxCell>
        <mxCell id="DdnkV21UblRkIuYv7x0r-45" style="edgeStyle=orthogonalEdgeStyle;rounded=0;orthogonalLoop=1;jettySize=auto;html=1;entryX=0;entryY=0.5;entryDx=0;entryDy=0;" edge="1" parent="1" source="DdnkV21UblRkIuYv7x0r-31" target="DdnkV21UblRkIuYv7x0r-23">
          <mxGeometry relative="1" as="geometry" />
        </mxCell>
        <mxCell id="DdnkV21UblRkIuYv7x0r-31" value="Send meter data to server" style="rounded=0;whiteSpace=wrap;html=1;" vertex="1" parent="1">
          <mxGeometry x="170" y="800" width="90" height="40" as="geometry" />
        </mxCell>
        <mxCell id="DdnkV21UblRkIuYv7x0r-49" value="End" style="ellipse;whiteSpace=wrap;html=1;aspect=fixed;" vertex="1" parent="1">
          <mxGeometry x="320" y="970" width="80" height="80" as="geometry" />
        </mxCell>
      </root>
    </mxGraphModel>
  </diagram>
</mxfile>
